# xmcd CD database file
#
# Track frame offsets:
#	150
#	23157
#	45242
#	63615
#	88087
#	107635
#	132907
#	152707
#	176080
#	195235
#	212390
#	234262
#	253995
#	269820
#	295805
#	325992
#
# Disc length: 4795 seconds
#
# Revision: 0
# Processed by: cddbd v1.5PL3 Copyright (c) Steve Scherf et al.
# Submitted via: CDex 1.51
#
DISCID=e312b910
DTITLE=オムニバス - Best of J-POP 2003 日本巨星最高傑作2003
DYEAR=2003
DGENRE=JPop
TTITLE0=Voyage （浜崎あゆみ）
TTITLE1=Wishing On The Same Star （安室奈美恵）
TTITLE2=亜麻色の髪の乙女 （島谷ひとみ）
TTITLE3=キヲク （Every Little Thing)
TTITLE4=VALENTI (BoA）
TTITLE5=Eternal Place （hiro）
TTITLE6=陽のあたる坂道 （Do As Infinity）
TTITLE7=My faith （day after tomorrow）
TTITLE8=恋の応援日 （ゆず）
TTITLE9=Your eyes only〜曖昧なぼくの輪郭〜 （EXILE）
TTITLE10=IS IT YOU? （hitomi）
TTITLE11=天体観測 （BUMP OF CHICKEN）
TTITLE12=恋のマイレージ （RAG FAIR）
TTITLE13=よる☆かぜ （ケツメイシ）
TTITLE14=RAIN OF PAIN （DA PUMP）
TTITLE15=CCCD DATA TRACK
EXTD=YEAR: 2003
EXTT0=
EXTT1=
EXTT2=
EXTT3=
EXTT4=
EXTT5=
EXTT6=
EXTT7=
EXTT8=
EXTT9=
EXTT10=
EXTT11=
EXTT12=
EXTT13=
EXTT14=
EXTT15=
PLAYORDER=
